<svg xmlns="http://www.w3.org/2000/svg" width="1400" height="760" viewBox="0 0 1400 760">
  <rect width="1400" height="760" fill="#f7f9fc"/>
  <text x="80" y="95" font-family="Noto Sans CJK KR, sans-serif" font-size="48" font-weight="700" fill="#172033">프롬프트만 볼 때와 기준을 함께 볼 때</text>
  <g font-family="Noto Sans CJK KR, sans-serif">
    <rect x="80" y="150" width="590" height="510" rx="28" fill="#ffffff" stroke="#d7deea" stroke-width="3"/>
    <text x="125" y="215" font-size="34" font-weight="700" fill="#6f2525">프롬프트만 보기</text>
    <rect x="125" y="260" width="500" height="78" rx="16" fill="#fff2f2" stroke="#cf5c5c" stroke-width="2"/>
    <text x="155" y="310" font-size="24" fill="#172033">현재 요청</text>
    <path d="M375 350 V405" stroke="#526173" stroke-width="4"/>
    <rect x="125" y="410" width="500" height="78" rx="16" fill="#fff8e8" stroke="#dca43a" stroke-width="2"/>
    <text x="155" y="460" font-size="24" fill="#172033">빠진 의도를 추측</text>
    <path d="M375 500 V555" stroke="#526173" stroke-width="4"/>
    <rect x="125" y="560" width="500" height="70" rx="16" fill="#f1f6ff" stroke="#4b79d8" stroke-width="2"/>
    <text x="155" y="605" font-size="24" fill="#172033">그럴듯하지만 어긋난 답변</text>
    <rect x="730" y="150" width="590" height="510" rx="28" fill="#ffffff" stroke="#d7deea" stroke-width="3"/>
    <text x="775" y="215" font-size="34" font-weight="700" fill="#23582e">기준 함께 보기</text>
    <rect x="775" y="250" width="500" height="64" rx="16" fill="#f1f6ff" stroke="#4b79d8" stroke-width="2"/>
    <text x="805" y="292" font-size="23" fill="#172033">현재 요청</text>
    <rect x="775" y="335" width="500" height="64" rx="16" fill="#f3fbf4" stroke="#57a86d" stroke-width="2"/>
    <text x="805" y="377" font-size="23" fill="#172033">재사용 가능한 선호</text>
    <rect x="775" y="420" width="500" height="64" rx="16" fill="#f9f2ff" stroke="#8a6bbf" stroke-width="2"/>
    <text x="805" y="462" font-size="23" fill="#172033">검증 기준</text>
    <rect x="775" y="505" width="500" height="64" rx="16" fill="#fff8e8" stroke="#dca43a" stroke-width="2"/>
    <text x="805" y="547" font-size="23" fill="#172033">위험과 경계 확인</text>
    <rect x="775" y="590" width="500" height="52" rx="16" fill="#eaf8f7" stroke="#4aa3a2" stroke-width="2"/>
    <text x="805" y="625" font-size="23" fill="#172033">사용자 기준에 맞는 응답 전략</text>
  </g>
</svg>
