<svg xmlns="http://www.w3.org/2000/svg" width="1400" height="760" viewBox="0 0 1400 760">
  <rect width="1400" height="760" fill="#f7f9fc"/>
  <text x="80" y="95" font-family="Noto Sans CJK KR, sans-serif" font-size="48" font-weight="700" fill="#172033">날짜순 로그와 연결된 기억의 차이</text>
  <g font-family="Noto Sans CJK KR, sans-serif">
    <rect x="80" y="150" width="560" height="500" rx="28" fill="#ffffff" stroke="#d7deea" stroke-width="3"/>
    <text x="125" y="215" font-size="34" font-weight="700" fill="#6f2525">날짜순 로그</text>
    <rect x="125" y="265" width="470" height="70" rx="16" fill="#fff2f2" stroke="#cf5c5c" stroke-width="2"/>
    <text x="160" y="310" font-size="23" fill="#172033">작업 기록 1</text>
    <rect x="125" y="365" width="470" height="70" rx="16" fill="#fff8e8" stroke="#dca43a" stroke-width="2"/>
    <text x="160" y="410" font-size="23" fill="#172033">작업 기록 2</text>
    <rect x="125" y="465" width="470" height="70" rx="16" fill="#f1f6ff" stroke="#4b79d8" stroke-width="2"/>
    <text x="160" y="510" font-size="23" fill="#172033">작업 기록 3</text>
    <path d="M360 335 V365" stroke="#526173" stroke-width="4"/>
    <path d="M360 435 V465" stroke="#526173" stroke-width="4"/>
    <text x="360" y="595" text-anchor="middle" font-size="23" fill="#526173">무엇이 반복되는지 찾기 어렵다</text>

    <rect x="760" y="150" width="560" height="500" rx="28" fill="#ffffff" stroke="#d7deea" stroke-width="3"/>
    <text x="805" y="215" font-size="34" font-weight="700" fill="#23582e">연결된 기억</text>
    <circle cx="1040" cy="395" r="72" fill="#172033"/>
    <text x="1040" y="385" text-anchor="middle" font-size="24" font-weight="700" fill="#ffffff">의도</text>
    <text x="1040" y="420" text-anchor="middle" font-size="24" font-weight="700" fill="#ffffff">중심</text>
    <g font-size="23" font-weight="700">
      <rect x="835" y="270" width="160" height="58" rx="15" fill="#f1f6ff" stroke="#4b79d8" stroke-width="2"/>
      <text x="915" y="307" text-anchor="middle" fill="#173563">선호</text>
      <rect x="1085" y="270" width="160" height="58" rx="15" fill="#f3fbf4" stroke="#57a86d" stroke-width="2"/>
      <text x="1165" y="307" text-anchor="middle" fill="#23582e">검증</text>
      <rect x="835" y="465" width="160" height="58" rx="15" fill="#fff8e8" stroke="#dca43a" stroke-width="2"/>
      <text x="915" y="502" text-anchor="middle" fill="#5a3b00">위험</text>
      <rect x="1085" y="465" width="160" height="58" rx="15" fill="#eaf8f7" stroke="#4aa3a2" stroke-width="2"/>
      <text x="1165" y="502" text-anchor="middle" fill="#215f5f">맥락</text>
    </g>
    <g stroke="#526173" stroke-width="4">
      <path d="M970 325 L990 350"/>
      <path d="M1110 325 L1090 350"/>
      <path d="M970 465 L990 440"/>
      <path d="M1110 465 L1090 440"/>
    </g>
    <text x="1040" y="595" text-anchor="middle" font-size="23" fill="#526173">반복 기준과 관계를 바로 볼 수 있다</text>
  </g>
</svg>
